<svg width="1433" height="1105" viewBox="0 0 1433 1105" fill="none" xmlns="http://www.w3.org/2000/svg">
<path d="M1079.95 360.74C1274.61 561.629 1269.57 882.287 1068.68 1076.95C867.793 1271.61 547.134 1266.57 352.47 1065.68C157.806 864.793 162.852 544.134 363.74 349.47C564.629 154.806 885.287 159.852 1079.95 360.74ZM356.905 1061.38C549.196 1259.82 865.944 1264.81 1064.38 1072.52C1262.82 880.225 1267.81 563.477 1075.52 365.038C883.225 166.599 566.477 161.614 368.038 353.905C169.599 546.196 164.615 862.944 356.905 1061.38Z" fill="url(#paint0_linear_2722_380)" fill-opacity="0.2"/>
<path d="M1040.48 392.555C1211.98 569.532 1205.5 853.992 1026.02 1027.91C846.532 1201.84 562.009 1199.36 390.516 1022.39C219.023 845.408 225.5 560.948 404.984 387.026C584.468 213.103 868.991 215.579 1040.48 392.555ZM394.478 1018.55C563.881 1193.36 844.935 1195.81 1022.23 1024.01C1199.53 852.206 1205.92 571.214 1036.52 396.395C867.119 221.576 586.065 219.13 408.77 390.933C231.475 562.735 225.076 843.727 394.478 1018.55Z" fill="url(#paint1_linear_2722_380)" fill-opacity="0.2"/>
<path d="M985.253 443.075C1126.5 588.837 1120.23 824.03 971.247 968.395C822.267 1112.76 586.992 1111.63 445.747 965.865C304.502 820.103 310.772 584.91 459.753 440.546C608.733 296.181 844.008 297.314 985.253 443.075ZM449.036 962.678C588.559 1106.66 820.965 1107.78 968.129 965.177C1115.29 822.573 1121.49 590.247 981.964 446.262C842.441 302.278 610.035 301.159 462.871 443.763C315.707 586.368 309.513 818.694 449.036 962.678Z" fill="url(#paint2_linear_2722_380)" fill-opacity="0.2"/>
<defs>
<linearGradient id="paint0_linear_2722_380" x1="122.671" y1="276.725" x2="972.705" y2="906.775" gradientUnits="userSpaceOnUse">
<stop stop-color="#940D7E"/>
<stop offset="1" stop-color="#DB64C8"/>
</linearGradient>
<linearGradient id="paint1_linear_2722_380" x1="191.511" y1="324.003" x2="939.395" y2="880.94" gradientUnits="userSpaceOnUse">
<stop stop-color="#940D7E"/>
<stop offset="1" stop-color="#DB64C8"/>
</linearGradient>
<linearGradient id="paint2_linear_2722_380" x1="283.427" y1="389.129" x2="898.958" y2="848.679" gradientUnits="userSpaceOnUse">
<stop stop-color="#940D7E"/>
<stop offset="1" stop-color="#DB64C8"/>
</linearGradient>
</defs>
</svg>
