<svg width="47" height="43" viewBox="0 0 47 43" fill="none" xmlns="http://www.w3.org/2000/svg">
<path d="M43.7598 1L26.2207 14.0098L29.4853 6.31928L43.7598 1Z" fill="#E17726" stroke="#E17726" stroke-width="0.25" stroke-linecap="round" stroke-linejoin="round"/>
<path d="M3.24061 1L20.6517 14.138L17.5151 6.38337L3.24061 1ZM37.4227 31.1853L32.7499 38.3632L42.7996 41.1189L45.6802 31.3776C45.6161 31.3776 37.4227 31.1853 37.4227 31.1853ZM1.38428 31.3776L4.26479 41.1189L14.2506 38.3632L9.57773 31.1853L1.38428 31.3776Z" fill="#E27625" stroke="#E27625" stroke-width="0.25" stroke-linecap="round" stroke-linejoin="round"/>
<path d="M13.6744 19.1369L10.9219 23.3667L20.7796 23.7512L20.4596 13.1127L13.6744 19.1369ZM33.3259 19.1369L26.4126 12.9845L26.1566 23.8153L36.0783 23.3667C36.0783 23.3026 33.3259 19.1369 33.3259 19.1369ZM14.2505 38.3632L20.2675 35.4793L15.0826 31.4418L14.2505 38.3632ZM26.7967 35.4152L32.7498 38.2992L31.9176 31.3777C31.9816 31.4418 26.7967 35.4152 26.7967 35.4152Z" fill="#E27625" stroke="#E27625" stroke-width="0.25" stroke-linecap="round" stroke-linejoin="round"/>
<path d="M32.7493 38.3632L26.7962 35.4793L27.3083 39.3886L27.2443 41.0549L32.7493 38.3632ZM14.25 38.3632L19.819 40.9908L19.755 39.3245L20.2671 35.4152L14.25 38.3632Z" fill="#D5BFB2" stroke="#D5BFB2" stroke-width="0.25" stroke-linecap="round" stroke-linejoin="round"/>
<path d="M19.8835 28.8781L14.9546 27.4041L18.4752 25.8019L19.8835 28.8781ZM27.1168 28.8781L28.589 25.8019L32.1096 27.4041L27.1168 28.8781Z" fill="#233447" stroke="#233447" stroke-width="0.25" stroke-linecap="round" stroke-linejoin="round"/>
<path d="M14.2506 38.3631L15.1467 31.1853L9.64176 31.3775C9.57775 31.3775 14.2506 38.3631 14.2506 38.3631ZM31.9177 31.1853L32.7499 38.3631L37.4227 31.3775L31.9177 31.1853ZM36.0785 23.3025L26.1567 23.7511L27.0529 28.814L28.5251 25.7378L32.0457 27.34C32.1098 27.4041 36.0785 23.3025 36.0785 23.3025ZM14.9547 27.4041L18.4753 25.8019L19.9476 28.8781L20.8438 23.8152L10.922 23.3666L14.9547 27.4041Z" fill="#CC6228" stroke="#CC6228" stroke-width="0.25" stroke-linecap="round" stroke-linejoin="round"/>
<path d="M10.9219 23.3025L15.0826 31.3775L14.9546 27.34C14.9546 27.4041 10.9219 23.3025 10.9219 23.3025ZM32.1096 27.4041L31.9176 31.4416L36.0783 23.3666C36.0783 23.3025 32.1096 27.4041 32.1096 27.4041ZM20.8436 23.7511L19.8835 28.814L21.0357 34.8383L21.2917 26.8914L20.8436 23.7511ZM26.2206 23.7511L25.7085 26.8914L25.9645 34.8383L27.1168 28.814L26.2206 23.7511Z" fill="#E27525" stroke="#E27525" stroke-width="0.25" stroke-linecap="round" stroke-linejoin="round"/>
<path d="M27.1168 28.8782L25.9645 34.9024L26.7967 35.4792L31.9176 31.4417L32.1096 27.4042L27.1168 28.8782ZM14.9546 27.4042L15.0826 31.4417L20.2675 35.4792L21.0997 34.9024L19.9475 28.8782L14.9546 27.4042Z" fill="#F5841F" stroke="#F5841F" stroke-width="0.25" stroke-linecap="round" stroke-linejoin="round"/>
<path d="M27.2443 40.9908L27.3083 39.3245L26.8602 38.9399H20.2031L19.755 39.3245L19.819 40.9908L14.25 38.3632L16.2344 39.9654L20.2031 42.657H26.9883L30.957 39.9013L32.8773 38.2991L27.2443 40.9908Z" fill="#C0AC9D" stroke="#C0AC9D" stroke-width="0.25" stroke-linecap="round" stroke-linejoin="round"/>
<path d="M26.7966 35.4152L25.9645 34.8384H21.0996L20.2675 35.4152L19.7554 39.3245L20.2035 38.94H26.8606L27.3087 39.3245L26.7966 35.4152Z" fill="#161616" stroke="#161616" stroke-width="0.25" stroke-linecap="round" stroke-linejoin="round"/>
<path d="M44.5277 14.907L46 7.72921L43.7596 1L26.7966 13.6253L33.3257 19.1368L42.5434 21.8285L44.5917 19.4573L43.6956 18.8164L45.1038 17.5346L44.0156 16.7015L45.4239 15.612L44.5277 14.907ZM1 7.72921L2.47226 14.907L1.5761 15.612L2.98435 16.7015L1.89616 17.5346L3.30441 18.8164L2.40825 19.4573L4.45661 21.8285L13.6743 19.1368L20.2034 13.6253L3.2404 1L1 7.72921Z" fill="#763E1A" stroke="#763E1A" stroke-width="0.25" stroke-linecap="round" stroke-linejoin="round"/>
<path d="M42.5436 21.8286L33.326 19.1369L36.0784 23.3026L31.9177 31.3776L37.4227 31.3136H45.6161L42.5436 21.8286ZM13.6745 19.1369L4.45682 21.8286L1.38428 31.3776H9.57773L15.0827 31.4417L10.922 23.3667L13.6745 19.1369ZM26.2207 23.7512L26.7968 13.5613L29.4853 6.31934H17.5151L20.2036 13.5613L20.7797 23.7512L21.0358 26.9556V34.8384H25.9646V26.9556L26.2207 23.7512Z" fill="#F5841F" stroke="#F5841F" stroke-width="0.25" stroke-linecap="round" stroke-linejoin="round"/>
</svg>
