<svg width="73" height="68" viewBox="0 0 73 68" fill="none" xmlns="http://www.w3.org/2000/svg">
<ellipse cx="36.3976" cy="33.9451" rx="36.3976" ry="33.8981" fill="#940D7E"/>
<path d="M63.0958 28.1868C64.4931 26.7643 64.9289 25.2475 64.369 23.756C63.8091 22.2644 62.2688 20.8387 59.8693 19.5911C57.4697 18.3434 54.2764 17.3079 50.5406 16.5659C46.8049 15.8239 42.6285 15.3958 38.3403 15.3151C34.052 15.2345 29.7688 15.5036 25.8278 16.1012C21.8867 16.6988 18.3953 17.6087 15.6283 18.7592C12.8613 19.9097 10.8942 21.2694 9.88178 22.7314C8.86935 24.1934 8.83921 25.7178 9.79375 27.1845L36.8527 25.0235L63.0958 28.1868Z" fill="#FDF5F5"/>
<path d="M63.0958 39.5691C64.4931 38.1466 64.9289 36.6299 64.369 35.1383C63.8091 33.6467 62.2688 32.221 59.8693 30.9734C57.4697 29.7257 54.2764 28.6902 50.5406 27.9482C46.8049 27.2062 42.6285 26.7781 38.3403 26.6974C34.052 26.6168 29.7688 26.8859 25.8278 27.4835C21.8867 28.0811 18.3953 28.991 15.6283 30.1415C12.8613 31.292 10.8942 32.6517 9.88178 34.1137C8.86935 35.5757 8.83921 37.1001 9.79375 38.5669L36.8527 36.4058L63.0958 39.5691Z" fill="#FDF5F5"/>
<path d="M33.0334 40.6002L45.1965 39.4885L46.4466 51.351C46.8001 54.7051 44.3638 57.6731 41.005 57.9801C37.6463 58.2871 34.6369 55.8169 34.2834 52.4627L33.0334 40.6002Z" fill="#FDF5F5"/>
</svg>
