<svg width="160" height="160" viewBox="0 0 160 160" fill="none" xmlns="http://www.w3.org/2000/svg">
<g filter="url(#filter0_i_2533_1349)">
<circle cx="79.9681" cy="79.9681" r="73" transform="rotate(5.76903 79.9681 79.9681)" fill="#171585"/>
<path d="M72.6545 117.678L73.2896 111.392C62.0533 109.316 55.588 101.921 56.5994 91.9096L69.0938 93.1719C68.7174 96.8969 70.5854 99.3592 74.3951 100.45L75.7515 87.024L73.6953 86.4243C63.508 83.2783 58.9584 77.0957 59.8836 67.9383C60.8323 58.5481 68.6697 52.3626 79.2718 52.1794L79.9226 45.7382L87.0622 46.4595L86.4115 52.9007C96.4523 55.1695 102.088 62.2458 101.1 72.024L88.9933 70.8009C89.3147 67.6191 87.9822 65.2893 85.2903 63.9982L83.9025 77.7343L86.106 78.4273C96.4408 81.6665 100.541 86.863 99.6552 95.6324C98.6673 105.411 91.2336 111.48 80.4527 111.88L79.7941 118.399L72.6545 117.678ZM72.1922 68.7115C71.855 72.0485 73.2111 74.1454 76.9119 75.5385L78.1663 63.1217C74.6733 63.5527 72.5136 65.5297 72.1922 68.7115ZM87.3458 95.6431C87.683 92.3061 86.0862 90.2632 82.7422 89.2198L81.5661 100.861C84.9196 100.259 87.0636 98.4369 87.3458 95.6431Z" fill="#F8F5F5"/>
</g>
<defs>
<filter id="filter0_i_2533_1349" x="6.96252" y="6.96259" width="146.011" height="161.011" filterUnits="userSpaceOnUse" color-interpolation-filters="sRGB">
<feFlood flood-opacity="0" result="BackgroundImageFix"/>
<feBlend mode="normal" in="SourceGraphic" in2="BackgroundImageFix" result="shape"/>
<feColorMatrix in="SourceAlpha" type="matrix" values="0 0 0 0 0 0 0 0 0 0 0 0 0 0 0 0 0 0 127 0" result="hardAlpha"/>
<feOffset dy="15"/>
<feGaussianBlur stdDeviation="25"/>
<feComposite in2="hardAlpha" operator="arithmetic" k2="-1" k3="1"/>
<feColorMatrix type="matrix" values="0 0 0 0 0.375 0 0 0 0 0.0109375 0 0 0 0 0.315426 0 0 0 1 0"/>
<feBlend mode="normal" in2="shape" result="effect1_innerShadow_2533_1349"/>
</filter>
</defs>
</svg>
